<?xml version="1.0" encoding="UTF-8"?>
<svg width="250px" height="250px" viewBox="0 0 250 250" version="1.1" xmlns="http://www.w3.org/2000/svg" xmlns:xlink="http://www.w3.org/1999/xlink">
    <!-- Generator: Sketch 40.3 (33839) - http://www.bohemiancoding.com/sketch -->
    <title>icon-inverse</title>
    <desc>Created with Sketch.</desc>
    <defs></defs>
    <g id="Page-1" stroke="none" stroke-width="1" fill="none" fill-rule="evenodd">
        <g id="icon-inverse" fill="#FFFFFF">
            <path d="M202.667336,133.744486 C205.337663,99.9288171 187.501821,66.3764832 155.187942,50.6159513 C112.994771,30.0369669 62.0952792,47.5845732 41.5007445,89.809627 C34.1322576,104.917264 31.6415223,121.137033 33.4138984,136.681697 C34.9396991,150.063766 25.3867188,187.695312 25.3867188,187.695312 C25.3867188,187.695312 66.5076144,196.648919 80.6085345,203.526398 C99.2424574,212.614769 119.574464,214.26692 138.244264,209.641312 C136.916478,207.667851 135.708936,205.579209 134.636537,203.380522 C122.114366,177.70692 132.760521,146.751052 158.415392,134.238655 C172.901682,127.173399 189.075836,127.499418 202.66734,133.744488 Z M82.5,158 L105,158 L111.5,158 L111.5,145 L105,145 L82.5,145 L76,145 L76,158 L82.5,158 Z M82.5,132 L121,132 L127.5,132 L127.5,119 L121,119 L82.5,119 L76,119 L76,132 L82.5,132 Z M82.5,106 L150.955078,106 L157.455078,106 L157.455078,93 L150.955078,93 L82.5,93 L76,93 L76,106 L82.5,106 Z" id="Combined-Shape"></path>
            <path d="M201.001355,220.514384 C178.924903,231.281789 152.2931,222.100472 141.517558,200.007337 C130.742016,177.914203 139.903215,151.275472 161.979667,140.508067 C184.05612,129.740662 210.687923,138.921979 221.463464,161.015113 C225.318829,168.919782 226.62204,177.406344 225.694691,185.539675 C224.896356,192.541486 229.540001,210.423879 229.540001,210.423879 C229.540001,210.423879 208.379286,216.915927 201.001355,220.514384 Z" id="Oval-Copy-3"></path>
        </g>
    </g>
</svg>