<?xml version="1.0" encoding="UTF-8"?>
<svg width="802px" height="219px" viewBox="0 0 802 219" version="1.1" xmlns="http://www.w3.org/2000/svg" xmlns:xlink="http://www.w3.org/1999/xlink">
    <!-- Generator: Sketch 40.3 (33839) - http://www.bohemiancoding.com/sketch -->
    <title>Slice</title>
    <desc>Created with Sketch.</desc>
    <defs></defs>
    <g id="Page-1" stroke="none" stroke-width="1" fill="none" fill-rule="evenodd">
        <path d="M99.9765625,178 L81.8710938,178 L81.8710938,141.027344 L47.9453125,141.027344 L47.9453125,178 L29.78125,178 L29.78125,92.3359375 L47.9453125,92.3359375 L47.9453125,125.910156 L81.8710938,125.910156 L81.8710938,92.3359375 L99.9765625,92.3359375 L99.9765625,178 Z M397.046875,178 L379.175781,178 L379.175781,139.738281 C379.175781,135.011695 378.384774,131.466809 376.802734,129.103516 C375.220695,126.740223 372.730486,125.558594 369.332031,125.558594 C364.761696,125.558594 361.441417,127.238264 359.371094,130.597656 C357.300771,133.957048 356.265625,139.484337 356.265625,147.179688 L356.265625,178 L338.394531,178 L338.394531,112.492188 L352.046875,112.492188 L354.449219,120.871094 L355.445312,120.871094 C357.203134,117.863266 359.742171,115.509774 363.0625,113.810547 C366.382829,112.11132 370.191385,111.261719 374.488281,111.261719 C384.293018,111.261719 390.933576,114.464812 394.410156,120.871094 L395.992188,120.871094 C397.750009,117.824204 400.337874,115.460946 403.755859,113.78125 C407.173845,112.101554 411.031229,111.261719 415.328125,111.261719 C422.750037,111.261719 428.365215,113.165997 432.173828,116.974609 C435.982441,120.783222 437.886719,126.886677 437.886719,135.285156 L437.886719,178 L419.957031,178 L419.957031,139.738281 C419.957031,135.011695 419.166024,131.466809 417.583984,129.103516 C416.001945,126.740223 413.511736,125.558594 410.113281,125.558594 C405.738259,125.558594 402.466808,127.121078 400.298828,130.246094 C398.130849,133.371109 397.046875,138.331997 397.046875,145.128906 L397.046875,178 Z M483.355469,123.976562 C479.566387,123.976562 476.597667,125.177722 474.449219,127.580078 C472.300771,129.982434 471.070314,133.390603 470.757812,137.804688 L495.835938,137.804688 C495.757812,133.390603 494.60548,129.982434 492.378906,127.580078 C490.152333,125.177722 487.14455,123.976562 483.355469,123.976562 L483.355469,123.976562 Z M485.875,179.171875 C475.328072,179.171875 467.085967,176.261748 461.148438,170.441406 C455.210908,164.621065 452.242188,156.37896 452.242188,145.714844 C452.242188,134.738226 454.986301,126.251983 460.474609,120.255859 C465.962918,114.259736 473.550733,111.261719 483.238281,111.261719 C492.49614,111.261719 499.703099,113.898411 504.859375,119.171875 C510.015651,124.445339 512.59375,131.730422 512.59375,141.027344 L512.59375,149.699219 L470.347656,149.699219 C470.54297,154.777369 472.046861,158.742173 474.859375,161.59375 C477.671889,164.445327 481.617162,165.871094 486.695312,165.871094 C490.640645,165.871094 494.371076,165.460942 497.886719,164.640625 C501.402361,163.820308 505.0742,162.511728 508.902344,160.714844 L508.902344,174.542969 C505.777328,176.105477 502.437518,177.267574 498.882812,178.029297 C495.328107,178.791019 490.992213,179.171875 485.875,179.171875 L485.875,179.171875 Z M544.996094,178 L527.125,178 L527.125,86.828125 L544.996094,86.828125 L544.996094,178 Z M605.347656,178 L601.890625,169.09375 L601.421875,169.09375 C598.414047,172.882831 595.318375,175.509758 592.134766,176.974609 C588.951156,178.43946 584.800807,179.171875 579.683594,179.171875 C573.3945,179.171875 568.443377,177.375018 564.830078,173.78125 C561.216779,170.187482 559.410156,165.070346 559.410156,158.429688 C559.410156,151.476528 561.841773,146.349626 566.705078,143.048828 C571.568384,139.74803 578.902295,137.921877 588.707031,137.570312 L600.074219,137.21875 L600.074219,134.347656 C600.074219,127.706998 596.675815,124.386719 589.878906,124.386719 C584.644505,124.386719 578.492223,125.968734 571.421875,129.132812 L565.503906,117.0625 C573.043006,113.117168 581.402298,111.144531 590.582031,111.144531 C599.371138,111.144531 606.109352,113.058575 610.796875,116.886719 C615.484398,120.714863 617.828125,126.535117 617.828125,134.347656 L617.828125,178 L605.347656,178 Z M600.074219,147.648438 L593.160156,147.882812 C587.964818,148.039063 584.097669,148.976554 581.558594,150.695312 C579.019519,152.414071 577.75,155.031232 577.75,158.546875 C577.75,163.585963 580.640596,166.105469 586.421875,166.105469 C590.562521,166.105469 593.873034,164.914074 596.353516,162.53125 C598.833997,160.148426 600.074219,156.984395 600.074219,153.039062 L600.074219,147.648438 Z M696.695312,178 L678.824219,178 L678.824219,139.738281 C678.824219,135.011695 677.984383,131.466809 676.304688,129.103516 C674.624992,126.740223 671.949237,125.558594 668.277344,125.558594 C663.277319,125.558594 659.664074,127.228499 657.4375,130.568359 C655.210926,133.90822 654.097656,139.445274 654.097656,147.179688 L654.097656,178 L636.226562,178 L636.226562,112.492188 L649.878906,112.492188 L652.28125,120.871094 L653.277344,120.871094 C655.269541,117.707015 658.013654,115.314461 661.509766,113.693359 C665.005877,112.072258 668.980446,111.261719 673.433594,111.261719 C681.050819,111.261719 686.832012,113.322245 690.777344,117.443359 C694.722676,121.564474 696.695312,127.51168 696.695312,135.285156 L696.695312,178 Z M735.835938,179.171875 C728.140587,179.171875 722.095725,176.183624 717.701172,170.207031 C713.306619,164.230439 711.109375,155.949272 711.109375,145.363281 C711.109375,134.62104 713.345681,126.251983 717.818359,120.255859 C722.291038,114.259736 728.453086,111.261719 736.304688,111.261719 C744.546916,111.261719 750.835916,114.464812 755.171875,120.871094 L755.757812,120.871094 C754.859371,115.988257 754.410156,111.632832 754.410156,107.804688 L754.410156,86.828125 L772.339844,86.828125 L772.339844,178 L758.628906,178 L755.171875,169.503906 L754.410156,169.503906 C750.347636,175.949251 744.156292,179.171875 735.835938,179.171875 L735.835938,179.171875 Z M742.105469,164.933594 C746.675804,164.933594 750.02538,163.605482 752.154297,160.949219 C754.283214,158.292955 755.445312,153.781282 755.640625,147.414062 L755.640625,145.480469 C755.640625,138.449184 754.556651,133.410171 752.388672,130.363281 C750.220692,127.316391 746.695337,125.792969 741.8125,125.792969 C737.828105,125.792969 734.732433,127.482405 732.525391,130.861328 C730.318348,134.240251 729.214844,139.152312 729.214844,145.597656 C729.214844,152.043001 730.328114,156.876937 732.554688,160.099609 C734.781261,163.322282 737.964823,164.933594 742.105469,164.933594 L742.105469,164.933594 Z" id="H-meland" fill="#232830"></path>
        <g id="Icon" transform="translate(129.000000, 31.000000)" stroke="#356DD0">
            <g id="Page-1">
                <g>
                    <g id="Icon">
                        <path d="M0.344161184,129.772327 C0.344161184,129.772327 8.84585665,96.2535183 7.48796702,84.3339706 C5.91063709,70.4881768 8.12727234,56.0410601 14.6848731,42.5845312 C33.0130236,4.97423734 78.3111364,-10.6555978 115.861039,7.6743173 C153.410943,26.0042324 168.993252,71.3527318 150.665101,108.963026 C132.336951,146.57332 87.0388382,162.203154 49.488935,143.87324 C36.9397908,137.747398 0.344161184,129.772327 0.344161184,129.772327 L0.344161184,129.772327 Z" id="Combined-Shape" stroke-width="20" fill="#FFFFFF"></path>
                        <g id="Group" transform="translate(50.727273, 50.770492)" stroke-width="13">
                            <path d="M0.444976077,46.7622951 L20.4688995,46.7622951" id="Line-Copy"></path>
                            <path d="M0.444976077,23.6038251 L34.708134,23.6038251" id="Line-Copy-2"></path>
                            <path d="M0.444976077,0.445355191 L61.3667202,0.445355191" id="Line"></path>
                        </g>
                        <path d="M158.821692,158.767567 C138.112693,168.876627 113.130509,160.256678 103.022421,139.514372 C92.914335,118.772066 101.508073,93.7620936 122.217073,83.6530338 C142.926074,73.5439742 167.908258,82.1639233 178.016344,102.906229 C181.632901,110.327587 182.855389,118.295259 181.985482,125.931299 C181.236598,132.505002 185.592607,149.294021 185.592607,149.294021 C185.592607,149.294021 165.742622,155.389128 158.821692,158.767567 L158.821692,158.767567 Z" id="Oval-Copy" stroke-width="10" fill="#FFFFFF"></path>
                    </g>
                </g>
            </g>
        </g>
    </g>
</svg>