<?xml version="1.0" encoding="UTF-8"?>
<svg width="250px" height="250px" viewBox="0 0 250 250" version="1.1" xmlns="http://www.w3.org/2000/svg" xmlns:xlink="http://www.w3.org/1999/xlink">
    <!-- Generator: Sketch 40.3 (33839) - http://www.bohemiancoding.com/sketch -->
    <title>Icon</title>
    <desc>Created with Sketch.</desc>
    <defs></defs>
    <g id="Page-1" stroke="none" stroke-width="1" fill="none" fill-rule="evenodd">
        <g id="Icon" transform="translate(24.000000, 44.000000)" stroke="#356DD0">
            <path d="M0.38671875,145.695312 C0.38671875,145.695312 9.93969914,108.063766 8.41389843,94.6816971 C6.64152232,79.1370328 9.13225763,62.9172638 16.5007445,47.809627 C37.0952792,5.58457321 87.9947715,-11.9630331 130.187942,8.61595133 C172.381113,29.1949358 189.890267,80.1076682 169.295732,122.332722 C148.701198,164.557776 97.8017053,182.105382 55.6085345,161.526398 C41.5076144,154.648919 0.38671875,145.695312 0.38671875,145.695312 Z" id="Combined-Shape" stroke-width="20" fill="#FFFFFF"></path>
            <g id="Group" transform="translate(57.000000, 51.000000)" stroke-width="13" stroke-linecap="square">
                <path d="M0.5,58.5 L23,58.5" id="Line-Copy"></path>
                <path d="M0.5,32.5 L39,32.5" id="Line-Copy-2"></path>
                <path d="M0.5,6.5 L68.9550781,6.5" id="Line"></path>
            </g>
            <path d="M178.460934,178.24825 C155.191144,189.597685 127.119765,179.920074 115.761753,156.6327 C104.403742,133.345326 114.060147,105.266645 137.329937,93.9172097 C160.599728,82.5677747 188.671107,92.2453863 200.029118,115.53276 C204.092883,123.864714 205.466539,132.810015 204.489063,141.382992 C203.647575,148.763284 208.54223,167.612306 208.54223,167.612306 C208.54223,167.612306 186.237677,174.455279 178.460934,178.24825 Z" id="Oval-Copy" stroke-width="10" fill="#FFFFFF"></path>
        </g>
    </g>
</svg>